<svg width="17" height="18" viewBox="0 0 17 18" fill="none" xmlns="http://www.w3.org/2000/svg">
<path d="M16.1368 6.35355L11.1377 5.56932L8.903 0.679086C8.84197 0.545195 8.74155 0.436806 8.61751 0.370923C8.30642 0.205152 7.92839 0.343294 7.77285 0.679086L5.53813 5.56932L0.539058 6.35355C0.401234 6.3748 0.275223 6.44493 0.178747 6.5512C0.0621115 6.6806 -0.00215972 6.85469 5.54169e-05 7.03521C0.00227055 7.21573 0.0707908 7.38792 0.19056 7.51394L3.80745 11.3203L2.95295 16.6951C2.93291 16.8201 2.94572 16.9487 2.98995 17.0663C3.03417 17.1838 3.10802 17.2857 3.20313 17.3602C3.29825 17.4348 3.41081 17.4791 3.52806 17.4881C3.64532 17.4972 3.76257 17.4706 3.86652 17.4113L8.33792 14.8737L12.8093 17.4113C12.9314 17.4814 13.0732 17.5048 13.209 17.4793C13.5516 17.4156 13.782 17.0649 13.7229 16.6951L12.8684 11.3203L16.4853 7.51394C16.5837 7.4098 16.6487 7.27379 16.6684 7.12502C16.7216 6.7531 16.4814 6.4088 16.1368 6.35355V6.35355Z" fill="#FDBF00"/>
</svg>
