<svg width="17" height="18" viewBox="0 0 17 18" fill="none" xmlns="http://www.w3.org/2000/svg">
<path d="M16.1058 6.35355L11.1163 5.56932L8.88591 0.679086C8.82499 0.545195 8.72477 0.436806 8.60097 0.370923C8.29048 0.205152 7.91317 0.343294 7.75792 0.679086L5.5275 5.56932L0.538023 6.35355C0.400464 6.3748 0.274695 6.44493 0.178403 6.5512C0.0619923 6.6806 -0.00215557 6.85469 5.53105e-05 7.03521C0.00226619 7.21573 0.0706549 7.38792 0.190194 7.51394L3.80015 11.3203L2.94728 16.6951C2.92728 16.8201 2.94007 16.9487 2.98421 17.0663C3.02834 17.1838 3.10205 17.2857 3.19698 17.3602C3.29191 17.4348 3.40426 17.4791 3.52129 17.4881C3.63832 17.4972 3.75535 17.4706 3.8591 17.4113L8.32192 14.8737L12.7847 17.4113C12.9066 17.4814 13.0481 17.5048 13.1837 17.4793C13.5256 17.4156 13.7555 17.0649 13.6966 16.6951L12.8437 11.3203L16.4536 7.51394C16.5519 7.4098 16.6167 7.27379 16.6364 7.12502C16.6895 6.7531 16.4497 6.4088 16.1058 6.35355V6.35355Z" fill="#FDBF00"/>
</svg>
